<svg xmlns="http://www.w3.org/2000/svg" xmlns:xlink="http://www.w3.org/1999/xlink" width="1587" zoomAndPan="magnify" viewBox="0 0 1190.25 1683.749945" height="2245" preserveAspectRatio="xMidYMid meet" version="1.0"><defs><g/><clipPath id="f6831f1416"><path d="M 163 166 L 1189.5 166 L 1189.5 1477 L 163 1477 Z M 163 166 " clip-rule="nonzero"/></clipPath><clipPath id="013b29f21a"><path d="M 0 0.40625 L 1189.5 0.40625 L 1189.5 1683.09375 L 0 1683.09375 Z M 0 0.40625 " clip-rule="nonzero"/></clipPath></defs><g clip-path="url(#f6831f1416)"><g fill="#96e406" fill-opacity="1"><g transform="translate(134.97285, 1219.362333)"><g><path d="M 327.21875 216.890625 L 270.8125 131.640625 C 273.3125 128.296875 276.648438 124.113281 280.828125 119.09375 C 285.015625 114.082031 293.789062 104.679688 307.15625 90.890625 C 320.53125 77.097656 333.488281 64.976562 346.03125 54.53125 C 358.570312 44.082031 373.195312 34.679688 389.90625 26.328125 C 406.625 17.972656 422.085938 13.796875 436.296875 13.796875 L 436.296875 8.78125 C 314.265625 -14.625 215.84375 -74.800781 141.03125 -171.75 C 66.226562 -268.707031 28.828125 -384.054688 28.828125 -517.796875 C 28.828125 -668.242188 78.976562 -795.078125 179.28125 -898.296875 C 279.582031 -1001.523438 401.195312 -1053.140625 544.125 -1053.140625 C 687.882812 -1053.140625 809.492188 -1001.523438 908.953125 -898.296875 C 1008.421875 -795.078125 1058.15625 -668.242188 1058.15625 -517.796875 C 1058.15625 -394.929688 1025.140625 -286.691406 959.109375 -193.078125 C 893.078125 -99.460938 806.148438 -36.359375 698.328125 -3.765625 L 698.328125 1.25 C 703.347656 1.25 725.5 5.21875 764.78125 13.15625 C 804.0625 21.101562 835.40625 25.078125 858.8125 25.078125 C 890.570312 25.078125 919.40625 19.429688 945.3125 8.140625 C 971.226562 -3.140625 989.195312 -14.210938 999.21875 -25.078125 L 1014.265625 -42.625 L 1088.234375 116.59375 C 1086.566406 120.769531 1083.851562 125.992188 1080.09375 132.265625 C 1076.332031 138.535156 1067.765625 149.609375 1054.390625 165.484375 C 1041.015625 181.367188 1026.175781 195.578125 1009.875 208.109375 C 993.582031 220.648438 971.851562 231.9375 944.6875 241.96875 C 917.519531 252 888.472656 257.015625 857.546875 257.015625 C 806.566406 257.015625 744.300781 240.710938 670.75 208.109375 C 597.195312 175.515625 533.675781 159.21875 480.1875 159.21875 C 450.925781 159.21875 423.550781 164.023438 398.0625 173.640625 C 372.570312 183.253906 354.390625 193.078125 343.515625 203.109375 Z M 283.34375 -517.796875 C 283.34375 -477.671875 287.9375 -440.265625 297.125 -405.578125 C 306.320312 -370.890625 320.742188 -339.335938 340.390625 -310.921875 C 360.035156 -282.503906 387.195312 -260.144531 421.875 -243.84375 C 456.5625 -227.550781 497.3125 -219.40625 544.125 -219.40625 C 631.882812 -219.40625 697.078125 -247.820312 739.703125 -304.65625 C 782.328125 -361.488281 803.640625 -432.535156 803.640625 -517.796875 C 803.640625 -602.210938 781.90625 -673.046875 738.4375 -730.296875 C 694.976562 -787.554688 630.207031 -816.1875 544.125 -816.1875 C 458.863281 -816.1875 394.082031 -787.347656 349.78125 -729.671875 C 305.488281 -672.003906 283.34375 -601.378906 283.34375 -517.796875 Z M 283.34375 -517.796875 "/></g></g></g></g><g clip-path="url(#013b29f21a)"><path stroke-linecap="butt" transform="matrix(10.68549, 0, 0, 10.68549, 51.359869, -34.445426)" fill="none" stroke-linejoin="miter" d="M 30.621576 133.309444 L 25.350848 125.317443 C 25.580058 125.01183 25.885671 124.620309 26.267322 124.14288 C 26.668347 123.684461 27.489774 122.806006 28.73087 121.507516 C 29.991341 120.209026 31.203923 119.072848 32.368981 118.09898 C 33.553049 117.124747 34.927942 116.246292 36.493661 115.463616 C 38.059745 114.680574 39.501536 114.289053 40.819036 114.289053 L 40.819036 113.830633 C 29.39949 111.634679 20.185037 106.000944 13.176774 96.930159 C 6.187156 87.859374 2.692712 77.060193 2.692712 64.532617 C 2.692712 50.458333 7.380728 38.589872 16.757492 28.92687 C 26.1529 19.263868 37.543931 14.43255 50.930952 14.43255 C 64.375002 14.43255 75.747024 19.263868 85.047019 28.92687 C 94.366389 38.589872 99.025891 50.458333 99.025891 64.532617 C 99.025891 76.028932 95.932107 86.159493 89.744905 94.92503 C 83.576713 103.690202 75.441411 109.600671 65.339364 112.656436 L 65.339364 113.11449 C 65.816793 113.11449 67.888821 113.487001 71.55508 114.231659 C 75.241081 114.976682 78.181692 115.348828 80.378012 115.348828 C 83.337999 115.348828 86.030391 114.814005 88.45592 113.744725 C 90.881084 112.694455 92.571095 111.663193 93.525953 110.650942 L 94.929726 109.018325 L 101.833071 123.91367 C 101.680265 124.295687 101.422541 124.78262 101.059534 125.374471 C 100.715902 125.966688 99.91385 126.997949 98.653379 128.468255 C 97.412283 129.957936 96.02752 131.28494 94.49982 132.449998 C 92.972121 133.634066 90.938478 134.693841 88.398526 135.62969 C 85.858575 136.584548 83.146808 137.061977 80.263224 137.061977 C 75.4893 137.061977 69.655235 135.533912 62.761394 132.478512 C 55.886563 129.423113 49.947215 127.895414 44.944081 127.895414 C 42.194294 127.895414 39.625463 128.344328 37.238684 129.241793 C 34.870548 130.139257 33.171033 131.065601 32.139771 132.020458 Z M 26.525411 64.532617 C 26.525411 68.294655 26.954951 71.79897 27.814396 75.045194 C 28.673842 78.291785 30.019855 81.242266 31.853168 83.89664 C 33.68648 86.551014 36.226432 88.64205 39.472657 90.16975 C 42.719247 91.697815 46.538679 92.461482 50.930952 92.461482 C 59.142292 92.461482 65.243952 89.807109 69.234834 84.498361 C 73.226082 79.170239 75.221706 72.515113 75.221706 64.532617 C 75.221706 56.645534 73.188063 50.028793 69.120412 44.681661 C 65.052761 39.31552 58.989486 36.632267 50.930952 36.632267 C 42.948457 36.632267 36.885182 39.33453 32.741127 44.739055 C 28.597438 50.124205 26.525411 56.721938 26.525411 64.532617 Z M 26.525411 64.532617 " stroke="#000000" stroke-width="5.719984" stroke-opacity="1" stroke-miterlimit="4"/></g></svg>